<svg width="1440" height="718" viewBox="0 0 1440 718" fill="none" xmlns="http://www.w3.org/2000/svg">
<rect x="974.87" y="547" width="38" height="38" rx="3" transform="rotate(45 974.87 547)" fill="url(#paint0_linear_2_2)"/>
<path fill-rule="evenodd" clip-rule="evenodd" d="M0 408C0 408 58.4276 269.065 170.692 308.008C282.957 346.951 322.832 399.614 383.281 308.008C398.954 284.257 393.147 233.497 354.003 231.482C314.859 229.466 344.752 185.166 412.147 176.475C479.542 167.784 394.051 106.413 342.752 88.5773C289.477 70.0547 357.911 21.2951 363.196 2.67356C376.066 -42.6736 0 2.67356 0 2.67356V408Z" fill="url(#paint1_linear_2_2)"/>
<path fill-rule="evenodd" clip-rule="evenodd" d="M1440 718C1440 718 1308.75 716.462 1246.45 657.526C1184.14 598.591 1184.65 471.139 1051.81 478.107C918.966 485.075 777.007 456.569 827.409 376.286C877.811 296.002 995.536 305.954 1023.67 175.094C1051.81 44.2347 821.437 202.259 783.387 115.246C768.529 81.2658 803.796 76.685 749.114 38.4564C730.961 25.7653 722.183 7.3759 725.802 0.227893C727.546 -3.21675 733.726 1.80642 740.171 0.227893C760.638 -4.78487 803.933 0.227893 847.813 0.227893C989.527 0.227893 1440 0.227893 1440 0.227893V718Z" fill="url(#paint2_linear_2_2)"/>
<path fill-rule="evenodd" clip-rule="evenodd" d="M520.396 592.229C529.096 590.41 531.805 600.008 547.671 600.008C563.537 600.008 577.646 590.943 597.282 598.936C616.917 606.93 632.804 631.146 612.687 626.477C600.805 623.719 586.109 615.31 565.871 631.319C545.632 647.327 533.522 616.759 518.36 621.45C503.197 626.142 511.625 594.064 520.396 592.229Z" fill="url(#paint3_linear_2_2)"/>
<defs>
<linearGradient id="paint0_linear_2_2" x1="1041.97" y1="579.524" x2="1008.9" y2="549.464" gradientUnits="userSpaceOnUse">
<stop stop-color="white" stop-opacity="0.01"/>
<stop offset="1" stop-color="#C9F0FF"/>
</linearGradient>
<linearGradient id="paint1_linear_2_2" x1="-320.118" y1="245.206" x2="271.142" y2="714.094" gradientUnits="userSpaceOnUse">
<stop stop-color="white" stop-opacity="0.01"/>
<stop offset="1" stop-color="#C9F0FF"/>
</linearGradient>
<linearGradient id="paint2_linear_2_2" x1="1280.14" y1="-433.769" x2="418.634" y2="169.616" gradientUnits="userSpaceOnUse">
<stop stop-color="white" stop-opacity="0.01"/>
<stop offset="1" stop-color="#C9F0FF"/>
</linearGradient>
<linearGradient id="paint3_linear_2_2" x1="443.83" y1="675.924" x2="630.224" y2="550.287" gradientUnits="userSpaceOnUse">
<stop stop-color="white" stop-opacity="0.01"/>
<stop offset="1" stop-color="#C9F0FF"/>
</linearGradient>
</defs>
</svg>
